<?xml version="1.0" encoding="utf-8"?>
<!-- Generator: Adobe Illustrator 25.0.1, SVG Export Plug-In . SVG Version: 6.00 Build 0)  -->
<svg version="1.1" id="Layer_1" xmlns="http://www.w3.org/2000/svg" xmlns:xlink="http://www.w3.org/1999/xlink" x="0px" y="0px"
	 viewBox="0 0 512 309" style="enable-background:new 0 0 512 309;" xml:space="preserve">
<g>
	<path d="M150.4,96.7h75.4v6h-68.5v45.1h64.4v6h-64.4v49.5h69.3v6h-76.2V96.7z M232.6,96.7h8l35.5,49.5l36.3-49.5l49.4-62.9
		l-81.1,117.7l41.8,57.9h-8.3l-38-52.7l-38.2,52.7h-8.2l42.1-57.9L232.6,96.7z M325.5,102.7v-6h86v6h-39.6v106.7h-6.9V102.7H325.5z
		 M56,96.7h8.6l119.2,178.4l-49.3-65.7L63.2,105.2l-0.3,104.1H56V96.7z M410.8,201.6c-1.4,0-2.5-1.1-2.5-2.5s1.1-2.5,2.5-2.5
		c1.4,0,2.5,1.1,2.5,2.5S412.2,201.6,410.8,201.6z M417.5,195h3.7c0.1,2,1.5,3.4,3.7,3.4c2.4,0,3.8-1.4,3.8-4.2V177h3.8v17.2
		c0,4.9-2.8,7.7-7.5,7.7C420.6,201.9,417.5,199.2,417.5,195z M437.4,194.8h3.7c0.3,2.3,2.6,3.8,5.8,3.8c3,0,5.2-1.6,5.2-3.7
		c0-1.9-1.4-3-4.6-3.7l-3.1-0.8c-4.4-1-6.4-3.1-6.4-6.7c0-4.3,3.5-7.2,8.8-7.2c4.9,0,8.5,2.9,8.7,7h-3.7c-0.4-2.2-2.3-3.6-5.1-3.6
		c-3,0-5,1.4-5,3.6c0,1.7,1.3,2.7,4.4,3.5l2.7,0.7c5,1.2,7,3.2,7,6.8c0,4.6-3.6,7.6-9.4,7.6C441.3,201.9,437.6,199.1,437.4,194.8z"
		/>
</g>
</svg>
