<?xml version="1.0" encoding="utf-8"?>
<!-- Generator: Adobe Illustrator 25.0.1, SVG Export Plug-In . SVG Version: 6.00 Build 0)  -->
<svg version="1.1" id="Capa_1" xmlns="http://www.w3.org/2000/svg" xmlns:xlink="http://www.w3.org/1999/xlink" x="0px" y="0px"
	 viewBox="0 0 56 56" style="enable-background:new 0 0 56 56;" xml:space="preserve">
<style type="text/css">
	.st0{fill:#E9E9E0;}
	.st1{fill:#D9D7CA;}
	.st2{fill:#EC6630;}
	.st3{fill:#FFFFFF;}
</style>
<g>
	<path class="st0" d="M32.2,15H18.7c-0.4,0-0.7,0.3-0.7,0.9v24.7c0,0.2,0.3,0.5,0.7,0.5h18.6c0.4,0,0.7-0.3,0.7-0.5V21
		c0-0.3,0-0.4-0.1-0.5l-5.4-5.4C32.4,15,32.3,15,32.2,15z"/>
	<polygon class="st1" points="32.4,15 32.4,20.6 37.9,20.6 	"/>
	<path class="st2" d="M37.3,41H18.7c-0.4,0-0.7-0.3-0.7-0.7v-7.2h20v7.2C38,40.7,37.7,41,37.3,41z"/>
	<g>
		<path class="st3" d="M23.1,34.9v4.7h-0.8v-2.1h-2v2.1h-0.8v-4.7h0.8V37h2v-2.1H23.1z"/>
		<path class="st3" d="M27.6,34.9v0.5h-1.4v4.2h-0.8v-4.2H24v-0.5H27.6z"/>
		<path class="st3" d="M32,34.9h0.8v4.7H32v-3.2L31,39h-0.7l-1.1-2.6v3.2h-0.8v-4.7h0.8l1.4,3.2L32,34.9z"/>
		<path class="st3" d="M34.8,34.9V39h2.2v0.6H34v-4.7H34.8z"/>
	</g>
	<g>
		<path class="st2" d="M25.8,22.6c-0.2-0.2-0.5-0.2-0.7,0l-2.8,2.8c-0.2,0.2-0.2,0.5,0,0.7l2.8,2.8c0.1,0.1,0.2,0.1,0.3,0.1
			s0.2,0,0.3-0.1c0.2-0.2,0.2-0.5,0-0.7l-2.5-2.5l2.5-2.5C26,23,26,22.7,25.8,22.6z"/>
		<path class="st2" d="M34.1,25.3l-2.8-2.8c-0.2-0.2-0.5-0.2-0.7,0c-0.2,0.2-0.2,0.5,0,0.7l2.5,2.5l-2.5,2.5c-0.2,0.2-0.2,0.5,0,0.7
			c0.1,0.1,0.2,0.1,0.3,0.1s0.2,0,0.3-0.1l2.8-2.8C34.3,25.8,34.3,25.5,34.1,25.3z"/>
	</g>
</g>
</svg>
